<svg xmlns="http://www.w3.org/2000/svg" viewBox="0 0 100 300" width="100" height="300">
  <defs>
    <linearGradient id="plataGrad" x1="0%" y1="0%" x2="100%" y2="0%">
      <stop offset="0%" style="stop-color:#808080;stop-opacity:1" />
      <stop offset="25%" style="stop-color:#D3D3D3;stop-opacity:1" />
      <stop offset="50%" style="stop-color:#F5F5F5;stop-opacity:1" />
      <stop offset="75%" style="stop-color:#D3D3D3;stop-opacity:1" />
      <stop offset="100%" style="stop-color:#808080;stop-opacity:1" />
    </linearGradient>
  </defs>
  <rect x="42" y="50" width="16" height="200" rx="3" fill="url(#plataGrad)" stroke="#696969" stroke-width="1"/>
  <rect x="35" y="35" width="30" height="25" rx="6" fill="url(#plataGrad)" stroke="#696969" stroke-width="1"/>
  <ellipse cx="50" cy="35" rx="15" ry="5" fill="#E8E8E8" stroke="#696969" stroke-width="1"/>
  <ellipse cx="50" cy="70" rx="10" ry="3" fill="none" stroke="#A9A9A9" stroke-width="1.5"/>
  <ellipse cx="50" cy="90" rx="8" ry="2" fill="none" stroke="#A9A9A9" stroke-width="1"/>
  <ellipse cx="50" cy="200" rx="8" ry="2" fill="none" stroke="#A9A9A9" stroke-width="1"/>
  <ellipse cx="50" cy="220" rx="10" ry="3" fill="none" stroke="#A9A9A9" stroke-width="1.5"/>
  <ellipse cx="50" cy="255" rx="14" ry="18" fill="url(#plataGrad)" stroke="#696969" stroke-width="1"/>
  <circle cx="50" cy="248" r="2" fill="#808080"/>
  <circle cx="44" cy="253" r="2" fill="#808080"/>
  <circle cx="56" cy="253" r="2" fill="#808080"/>
  <circle cx="50" cy="260" r="2" fill="#808080"/>
  <circle cx="44" cy="265" r="2" fill="#808080"/>
  <circle cx="56" cy="265" r="2" fill="#808080"/>
  <circle cx="50" cy="270" r="2" fill="#808080"/>
</svg>
