<svg xmlns="http://www.w3.org/2000/svg" viewBox="0 0 200 250" width="200" height="250">
  <defs>
    <linearGradient id="mateGrad" x1="0%" y1="0%" x2="100%" y2="100%">
      <stop offset="0%" style="stop-color:#8B4513;stop-opacity:1" />
      <stop offset="50%" style="stop-color:#A0522D;stop-opacity:1" />
      <stop offset="100%" style="stop-color:#6B3410;stop-opacity:1" />
    </linearGradient>
    <linearGradient id="bordeGrad" x1="0%" y1="0%" x2="100%" y2="0%">
      <stop offset="0%" style="stop-color:#C0C0C0;stop-opacity:1" />
      <stop offset="50%" style="stop-color:#E8E8E8;stop-opacity:1" />
      <stop offset="100%" style="stop-color:#A0A0A0;stop-opacity:1" />
    </linearGradient>
    <radialGradient id="yerbaGrad" cx="50%" cy="50%" r="50%">
      <stop offset="0%" style="stop-color:#5D7A3A;stop-opacity:1" />
      <stop offset="100%" style="stop-color:#3D5A1A;stop-opacity:1" />
    </radialGradient>
  </defs>
  <path d="M60,60 Q55,60 50,70 L30,200 Q25,220 40,230 L160,230 Q175,220 170,200 L150,70 Q145,60 140,60 Z" fill="url(#mateGrad)" stroke="#5C2E0A" stroke-width="2"/>
  <ellipse cx="100" cy="60" rx="42" ry="12" fill="url(#bordeGrad)" stroke="#888" stroke-width="1.5"/>
  <ellipse cx="100" cy="65" rx="35" ry="8" fill="url(#yerbaGrad)"/>
  <line x1="120" y1="65" x2="135" y2="180" stroke="#C0C0C0" stroke-width="4" stroke-linecap="round"/>
  <circle cx="120" cy="65" r="4" fill="#D4D4D4"/>
  <line x1="130" y1="120" x2="140" y2="120" stroke="#A0A0A0" stroke-width="2"/>
  <line x1="132" y1="140" x2="142" y2="140" stroke="#A0A0A0" stroke-width="2"/>
  <line x1="134" y1="160" x2="144" y2="160" stroke="#A0A0A0" stroke-width="2"/>
</svg>
